<?xml version="1.0" encoding="UTF-8" standalone="no"?>
<!-- Created with Inkscape (http://www.inkscape.org/) -->

<svg
   xmlns:dc="http://purl.org/dc/elements/1.1/"
   xmlns:cc="http://creativecommons.org/ns#"
   xmlns:rdf="http://www.w3.org/1999/02/22-rdf-syntax-ns#"
   xmlns:svg="http://www.w3.org/2000/svg"
   xmlns="http://www.w3.org/2000/svg"
   xmlns:xlink="http://www.w3.org/1999/xlink"
   xmlns:sodipodi="http://sodipodi.sourceforge.net/DTD/sodipodi-0.dtd"
   xmlns:inkscape="http://www.inkscape.org/namespaces/inkscape"
   width="48"
   height="48"
   id="svg7552"
   version="1.1"
   inkscape:version="0.92.1 r15371"
   enable-background="new"
   sodipodi:docname="Block Calls Icon (Take 3).svg"
   inkscape:export-filename="C:\Users\Matt\Documents\Inkscape\Material\Block Calls\Block Calls Icon (Take 3).png"
   inkscape:export-xdpi="384"
   inkscape:export-ydpi="384">
  <defs
     id="defs7554">
    <linearGradient
       inkscape:collect="always"
       id="linearGradient4587">
      <stop
         style="stop-color:#000000;stop-opacity:0.15"
         offset="0"
         id="stop4583" />
      <stop
         style="stop-color:#000000;stop-opacity:0;"
         offset="1"
         id="stop4585" />
    </linearGradient>
    <linearGradient
       inkscape:collect="always"
       id="linearGradient4245">
      <stop
         style="stop-color:#f5f5f5;stop-opacity:0.1"
         offset="0"
         id="stop4247" />
      <stop
         style="stop-color:#f5f5f5;stop-opacity:0;"
         offset="1"
         id="stop4249" />
    </linearGradient>
    <clipPath
       clipPathUnits="userSpaceOnUse"
       inkscape:inverse="false"
       id="clipPath7794">
      <rect
         ry="1"
         rx="1"
         y="9"
         x="9"
         height="30"
         width="30"
         id="rect7796"
         style="fill:#5880c0;fill-opacity:1;fill-rule:nonzero;stroke:none" />
    </clipPath>
    <filter
       inkscape:collect="always"
       style="color-interpolation-filters:sRGB"
       id="filter4516"
       x="-0.029999999"
       width="1.0599999"
       y="-0.029999999"
       height="1.0599999">
      <feGaussianBlur
         inkscape:collect="always"
         stdDeviation="0.55"
         id="feGaussianBlur4518" />
    </filter>
    <radialGradient
       inkscape:collect="always"
       xlink:href="#linearGradient4245"
       id="radialGradient4251"
       cx="1.9913014"
       cy="2.0796897"
       fx="1.9913014"
       fy="2.0796897"
       r="22"
       gradientUnits="userSpaceOnUse"
       gradientTransform="matrix(0,1.9927555,-1.9927555,0,6.1356145,-1.8884869)" />
    <filter
       inkscape:collect="always"
       style="color-interpolation-filters:sRGB"
       id="filter4174"
       x="-0.036"
       width="1.072"
       y="-0.036"
       height="1.072">
      <feGaussianBlur
         inkscape:collect="always"
         stdDeviation="0.66"
         id="feGaussianBlur4176" />
    </filter>
    <filter
       inkscape:collect="always"
       style="color-interpolation-filters:sRGB"
       id="filter4558"
       x="-0.084"
       width="1.168"
       y="-0.084"
       height="1.168">
      <feGaussianBlur
         inkscape:collect="always"
         stdDeviation="1.12"
         id="feGaussianBlur4560" />
    </filter>
    <linearGradient
       inkscape:collect="always"
       xlink:href="#linearGradient4587"
       id="linearGradient4589"
       x1="23.6875"
       y1="22.986328"
       x2="42"
       y2="41.298828"
       gradientUnits="userSpaceOnUse" />
  </defs>
  <sodipodi:namedview
     id="base"
     pagecolor="#eeeeee"
     bordercolor="#666666"
     borderopacity="1.0"
     inkscape:pageopacity="0"
     inkscape:pageshadow="2"
     inkscape:zoom="5.6568542"
     inkscape:cx="24"
     inkscape:cy="24"
     inkscape:current-layer="layer6"
     showgrid="false"
     inkscape:grid-bbox="true"
     inkscape:document-units="px"
     inkscape:showpageshadow="false"
     borderlayer="true"
     inkscape:window-width="1920"
     inkscape:window-height="1017"
     inkscape:window-x="-8"
     inkscape:window-y="-8"
     inkscape:window-maximized="1"
     inkscape:object-nodes="true"
     inkscape:snap-smooth-nodes="true"
     inkscape:object-paths="false">
    <inkscape:grid
       type="xygrid"
       id="grid8135"
       empspacing="1"
       color="#9f9f9f"
       opacity="0.1254902"
       empcolor="#9f9f9f"
       empopacity="0.25098039" />
  </sodipodi:namedview>
  <metadata
     id="metadata7557">
    <rdf:RDF>
      <cc:Work
         rdf:about="">
        <dc:format>image/svg+xml</dc:format>
        <dc:type
           rdf:resource="http://purl.org/dc/dcmitype/StillImage" />
        <dc:title></dc:title>
      </cc:Work>
    </rdf:RDF>
  </metadata>
  <g
     inkscape:groupmode="layer"
     id="layer6"
     inkscape:label="Layer">
    <circle
       r="22"
       cy="24"
       cx="24"
       id="circle4164"
       style="color:#000000;clip-rule:nonzero;display:inline;overflow:visible;visibility:visible;opacity:0.1;isolation:auto;mix-blend-mode:normal;color-interpolation:sRGB;color-interpolation-filters:linearRGB;solid-color:#000000;solid-opacity:1;fill:#000000;fill-opacity:1;fill-rule:nonzero;stroke:none;stroke-width:1;stroke-linecap:butt;stroke-linejoin:miter;stroke-miterlimit:4;stroke-dasharray:none;stroke-dashoffset:0;stroke-opacity:1;color-rendering:auto;image-rendering:auto;shape-rendering:auto;text-rendering:auto;enable-background:accumulate;filter:url(#filter4174)" />
    <circle
       r="22"
       cy="25"
       cx="24"
       id="circle4506"
       style="color:#000000;clip-rule:nonzero;display:inline;overflow:visible;visibility:visible;opacity:0.23999999;isolation:auto;mix-blend-mode:normal;color-interpolation:sRGB;color-interpolation-filters:linearRGB;solid-color:#000000;solid-opacity:1;fill:#000000;fill-opacity:1;fill-rule:nonzero;stroke:none;stroke-width:1;stroke-linecap:butt;stroke-linejoin:miter;stroke-miterlimit:4;stroke-dasharray:none;stroke-dashoffset:0;stroke-opacity:1;filter:url(#filter4516);color-rendering:auto;image-rendering:auto;shape-rendering:auto;text-rendering:auto;enable-background:accumulate" />
    <circle
       style="color:#000000;clip-rule:nonzero;display:inline;overflow:visible;visibility:visible;opacity:1;isolation:auto;mix-blend-mode:normal;color-interpolation:sRGB;color-interpolation-filters:linearRGB;solid-color:#000000;solid-opacity:1;fill:#e91e63;fill-opacity:1;fill-rule:nonzero;stroke:none;stroke-width:1;stroke-linecap:butt;stroke-linejoin:miter;stroke-miterlimit:4;stroke-dasharray:none;stroke-dashoffset:0;stroke-opacity:1;color-rendering:auto;image-rendering:auto;shape-rendering:auto;text-rendering:auto;enable-background:accumulate"
       id="path4479"
       cx="24"
       cy="24"
       r="22" />
    <path
       inkscape:connector-curvature="0"
       style="color:#000000;clip-rule:nonzero;display:inline;overflow:visible;visibility:visible;opacity:0.2;isolation:auto;mix-blend-mode:normal;color-interpolation:sRGB;color-interpolation-filters:linearRGB;solid-color:#000000;solid-opacity:1;fill:#ffffff;fill-opacity:1;fill-rule:nonzero;stroke:none;stroke-width:1;stroke-linecap:butt;stroke-linejoin:miter;stroke-miterlimit:4;stroke-dasharray:none;stroke-dashoffset:0;stroke-opacity:1;color-rendering:auto;image-rendering:auto;shape-rendering:auto;text-rendering:auto;enable-background:accumulate"
       d="M 24,1.9999902 A 22,22 0 0 0 2.0000006,23.99999 22,22 0 0 0 2.0058606,24.14647 22,22 0 0 1 24,2.2499902 22,22 0 0 1 45.994141,24.10351 22,22 0 0 0 46,23.99999 22,22 0 0 0 24,1.9999902 Z"
       id="circle4496" />
    <path
       inkscape:connector-curvature="0"
       style="color:#000000;clip-rule:nonzero;display:inline;overflow:visible;visibility:visible;opacity:0.2;isolation:auto;mix-blend-mode:normal;color-interpolation:sRGB;color-interpolation-filters:linearRGB;solid-color:#000000;solid-opacity:1;fill:#000000;fill-opacity:1;fill-rule:nonzero;stroke:none;stroke-width:1;stroke-linecap:butt;stroke-linejoin:miter;stroke-miterlimit:4;stroke-dasharray:none;stroke-dashoffset:0;stroke-opacity:1;color-rendering:auto;image-rendering:auto;shape-rendering:auto;text-rendering:auto;enable-background:accumulate"
       d="M 45.994141,23.85351 A 22,22 0 0 1 24,45.74999 22,22 0 0 1 2.00586,23.89647 22,22 0 0 0 2,23.99999 a 22,22 0 0 0 21.999999,22 22,22 0 0 0 22,-22 22,22 0 0 0 -0.0059,-0.14648 z"
       id="circle4501" />
    <circle
       r="16"
       cy="25"
       cx="24.375"
       id="circle4532"
       style="color:#000000;clip-rule:nonzero;display:inline;overflow:visible;visibility:visible;opacity:0.2;isolation:auto;mix-blend-mode:normal;color-interpolation:sRGB;color-interpolation-filters:linearRGB;solid-color:#000000;solid-opacity:1;fill:#000000;fill-opacity:1;fill-rule:nonzero;stroke:none;stroke-width:12;stroke-linecap:butt;stroke-linejoin:miter;stroke-miterlimit:4;stroke-dasharray:none;stroke-dashoffset:0;stroke-opacity:1;color-rendering:auto;image-rendering:auto;shape-rendering:auto;text-rendering:auto;enable-background:accumulate;filter:url(#filter4558)" />
    <path
       style="color:#000000;clip-rule:nonzero;display:inline;overflow:visible;visibility:visible;opacity:1;isolation:auto;mix-blend-mode:normal;color-interpolation:sRGB;color-interpolation-filters:linearRGB;solid-color:#000000;solid-opacity:1;fill:url(#linearGradient4589);fill-opacity:1;fill-rule:nonzero;stroke:none;stroke-width:12;stroke-linecap:butt;stroke-linejoin:miter;stroke-miterlimit:4;stroke-dasharray:none;stroke-dashoffset:0;stroke-opacity:1;color-rendering:auto;image-rendering:auto;shape-rendering:auto;text-rendering:auto;enable-background:accumulate"
       d="M 35.314453 12.685547 L 23.6875 22.986328 L 12.685547 35.314453 L 23.074219 45.703125 A 22 22 0 0 0 24 45.75 A 22 22 0 0 0 45.994141 23.853516 A 22 22 0 0 0 45.976562 23.349609 L 35.314453 12.685547 z "
       id="path4574" />
    <circle
       style="color:#000000;clip-rule:nonzero;display:inline;overflow:visible;visibility:visible;opacity:1;isolation:auto;mix-blend-mode:normal;color-interpolation:sRGB;color-interpolation-filters:linearRGB;solid-color:#000000;solid-opacity:1;fill:#ffffff;fill-opacity:1;fill-rule:nonzero;stroke:none;stroke-width:12;stroke-linecap:butt;stroke-linejoin:miter;stroke-miterlimit:4;stroke-dasharray:none;stroke-dashoffset:0;stroke-opacity:1;color-rendering:auto;image-rendering:auto;shape-rendering:auto;text-rendering:auto;enable-background:accumulate"
       id="path4516"
       cx="24"
       cy="24"
       r="16" />
    <path
       style="fill:#4caf50;fill-opacity:1"
       d="m 31,54 c -9.4,0 -17,7.6 -17,17 0,0.6 0.4,1 1,1 h 2 c 1.930565,-2.454537 1.768943,-4.735615 1.630859,-6.769531 l -1.03125,-1.03125 c 1.5,-2.8 3.79961,-5.19961 6.59961,-6.59961 l 0.990234,1.035157 C 27.466059,58.647073 29.798719,58.079478 32,57 v -2 c 0,-0.6 -0.4,-1 -1,-1 z"
       id="path4533"
       inkscape:connector-curvature="0"
       sodipodi:nodetypes="sssccccccss" />
    <path
       d="m 31.999501,56.999999 a 15,15 0 0 0 -6.810547,1.634766 l 1.210938,1.265625 c 0.3,0.2 0.7,0.299218 1,0.199218 1.2,-0.4 2.399609,-0.599609 3.599609,-0.599609 0.6,0 1,-0.4 1,-1 z M 18.63036,65.230468 a 15,15 0 0 0 -1.630859,6.769531 h 1.400391 c 0.6,0 1,-0.4 1,-1 0,-1.3 0.199609,-2.499609 0.599609,-3.599609 0.2,-0.3 0.100781,-0.7 -0.199219,-1 z"
       id="path4550"
       style="fill:#ffc107;fill-opacity:1"
       inkscape:connector-curvature="0" />
    <path
       style="fill:#4caf50;fill-opacity:1"
       inkscape:connector-curvature="0"
       d="m -17.988,21.2875 c -2.8,1.4 -5.1,3.8 -6.6,6.6 l 2.2,2.2 c 0.3,0.3 0.4,0.7 0.2,1 -0.4,1.1 -0.6,2.3 -0.6,3.6 0,0.6 -0.4,1 -1,1 h -3.4 c -0.6,0 -1,-0.4 -1,-1 0,-9.4 7.6,-17 17,-17 0.6,0 1,0.4 1,1 v 3.5 c 0,0.6 -0.4,1 -1,1 -1.2,0 -2.4,0.2 -3.6,0.6 -0.3,0.1 -0.7,0 -1,-0.2 z"
       id="path4531" />
    <path
       style="color:#000000;clip-rule:nonzero;display:inline;overflow:visible;visibility:visible;opacity:0.5;isolation:auto;mix-blend-mode:normal;color-interpolation:sRGB;color-interpolation-filters:linearRGB;solid-color:#000000;solid-opacity:1;fill:#ffffff;fill-opacity:1;fill-rule:nonzero;stroke:none;stroke-width:12;stroke-linecap:butt;stroke-linejoin:miter;stroke-miterlimit:4;stroke-dasharray:none;stroke-dashoffset:0;stroke-opacity:1;color-rendering:auto;image-rendering:auto;shape-rendering:auto;text-rendering:auto;enable-background:accumulate"
       d="M 24 8 A 16 16 0 0 0 8 24 A 16 16 0 0 0 8.0058594 24.144531 A 16 16 0 0 1 24 8.25 A 16 16 0 0 1 39.994141 24.105469 A 16 16 0 0 0 40 24 A 16 16 0 0 0 24 8 z "
       id="circle4562" />
    <path
       id="path4567"
       d="M 24,40 A 16,16 0 0 1 8,24 16,16 0 0 1 8.0058594,23.855469 16,16 0 0 0 24,39.75 16,16 0 0 0 39.994141,23.894531 16,16 0 0 1 40,24 16,16 0 0 1 24,40 Z"
       style="color:#000000;clip-rule:nonzero;display:inline;overflow:visible;visibility:visible;opacity:0.15;isolation:auto;mix-blend-mode:normal;color-interpolation:sRGB;color-interpolation-filters:linearRGB;solid-color:#000000;solid-opacity:1;fill:#000000;fill-opacity:1;fill-rule:nonzero;stroke:none;stroke-width:12;stroke-linecap:butt;stroke-linejoin:miter;stroke-miterlimit:4;stroke-dasharray:none;stroke-dashoffset:0;stroke-opacity:1;color-rendering:auto;image-rendering:auto;shape-rendering:auto;text-rendering:auto;enable-background:accumulate"
       inkscape:connector-curvature="0" />
    <path
       d="m 15,19 v 8 h 2 V 22.400391 L 22.599609,28 C 24.576644,28.26373 23.920508,27.212757 24,26.599609 L 18.400391,21 H 23 v -2 z"
       id="polygon4591"
       style="fill:#4caf50;fill-opacity:1"
       inkscape:connector-curvature="0"
       sodipodi:nodetypes="cccccccccc" />
    <path
       style="color:#000000;clip-rule:nonzero;display:inline;overflow:visible;visibility:visible;opacity:1;isolation:auto;mix-blend-mode:normal;color-interpolation:sRGB;color-interpolation-filters:linearRGB;solid-color:#000000;solid-opacity:1;fill:#ffc107;fill-opacity:1;fill-rule:nonzero;stroke:none;stroke-width:12;stroke-linecap:butt;stroke-linejoin:miter;stroke-miterlimit:4;stroke-dasharray:none;stroke-dashoffset:0;stroke-opacity:1;color-rendering:auto;image-rendering:auto;shape-rendering:auto;text-rendering:auto;enable-background:accumulate"
       d="M 24,26.6 22.6,28 24,29.4 33,20.4 31.6,19 Z"
       id="path4608"
       inkscape:connector-curvature="0" />
  </g>
  <g
     inkscape:groupmode="layer"
     id="layer2"
     inkscape:label="Finish"
     style="display:inline"
     sodipodi:insensitive="true">
    <circle
       r="22"
       cy="24"
       cx="24"
       id="circle4228"
       style="color:#000000;clip-rule:nonzero;display:inline;overflow:visible;visibility:visible;opacity:1;isolation:auto;mix-blend-mode:normal;color-interpolation:sRGB;color-interpolation-filters:linearRGB;solid-color:#000000;solid-opacity:1;fill:url(#radialGradient4251);fill-opacity:1;fill-rule:nonzero;stroke:none;stroke-width:1;stroke-linecap:butt;stroke-linejoin:miter;stroke-miterlimit:4;stroke-dasharray:none;stroke-dashoffset:0;stroke-opacity:1;color-rendering:auto;image-rendering:auto;shape-rendering:auto;text-rendering:auto;enable-background:accumulate" />
  </g>
  <g
     id="layer1"
     inkscape:label="Icon grid"
     inkscape:groupmode="layer"
     sodipodi:insensitive="true"
     style="display:none">
    <g
       transform="translate(0,-1004.3622)"
       id="g7511"
       style="display:inline;opacity:0.54000005;filter:url(#filter7145);enable-background:new">
      <path
         transform="translate(0,1004.3622)"
         inkscape:connector-curvature="0"
         id="path7481"
         d="M 0,0 48,48"
         style="fill:none;stroke:#000000;stroke-width:0.1;stroke-linecap:round;stroke-linejoin:miter;stroke-miterlimit:4;stroke-dasharray:none;stroke-dashoffset:0;stroke-opacity:1" />
      <path
         transform="translate(0,1004.3622)"
         inkscape:connector-curvature="0"
         id="path7483"
         d="M 0,48 48,0"
         style="fill:none;stroke:#000000;stroke-width:0.1;stroke-linecap:round;stroke-linejoin:miter;stroke-miterlimit:4;stroke-dasharray:none;stroke-dashoffset:0;stroke-opacity:1" />
      <path
         transform="translate(0,1004.3622)"
         inkscape:connector-curvature="0"
         id="path7485"
         d="M 31,0 V 48"
         style="fill:none;stroke:#000000;stroke-width:0.1;stroke-linecap:round;stroke-linejoin:miter;stroke-miterlimit:4;stroke-dasharray:none;stroke-dashoffset:0;stroke-opacity:1" />
      <path
         transform="translate(0,1004.3622)"
         inkscape:connector-curvature="0"
         id="path7487"
         d="M 24,48 V 0"
         style="fill:none;stroke:#000000;stroke-width:0.1;stroke-linecap:round;stroke-linejoin:miter;stroke-miterlimit:4;stroke-dasharray:none;stroke-dashoffset:0;stroke-opacity:1" />
      <path
         transform="translate(0,1004.3622)"
         inkscape:connector-curvature="0"
         id="path7491"
         d="M 17,48 V 0"
         style="fill:none;stroke:#000000;stroke-width:0.1;stroke-linecap:round;stroke-linejoin:miter;stroke-miterlimit:4;stroke-dasharray:none;stroke-dashoffset:0;stroke-opacity:1" />
      <path
         transform="translate(0,1004.3622)"
         inkscape:connector-curvature="0"
         id="path7493"
         d="M 0,31 H 48"
         style="fill:none;stroke:#000000;stroke-width:0.1;stroke-linecap:round;stroke-linejoin:miter;stroke-miterlimit:4;stroke-dasharray:none;stroke-dashoffset:0;stroke-opacity:1" />
      <path
         transform="translate(0,1004.3622)"
         inkscape:connector-curvature="0"
         id="path7495"
         d="M 48,24 H 0"
         style="fill:none;stroke:#000000;stroke-width:0.1;stroke-linecap:round;stroke-linejoin:miter;stroke-miterlimit:4;stroke-dasharray:none;stroke-dashoffset:0;stroke-opacity:1" />
      <path
         transform="translate(0,1004.3622)"
         inkscape:connector-curvature="0"
         id="path7497"
         d="M 0,17 H 48"
         style="fill:none;stroke:#000000;stroke-width:0.1;stroke-linecap:round;stroke-linejoin:miter;stroke-miterlimit:4;stroke-dasharray:none;stroke-dashoffset:0;stroke-opacity:1" />
      <circle
         transform="translate(0,1004.3622)"
         id="path7499"
         style="fill:none;stroke:#000000;stroke-width:0.1;stroke-linecap:round;stroke-linejoin:miter;stroke-miterlimit:4;stroke-dasharray:none;stroke-dashoffset:0;stroke-opacity:1"
         cx="24"
         cy="24"
         r="10" />
      <circle
         transform="translate(0,1004.3622)"
         id="path7501"
         style="fill:none;stroke:#000000;stroke-width:0.1;stroke-linecap:round;stroke-linejoin:miter;stroke-miterlimit:4;stroke-dasharray:none;stroke-dashoffset:0;stroke-opacity:1"
         cx="24"
         cy="24"
         r="22" />
      <rect
         ry="3"
         rx="3"
         transform="translate(0,1004.3622)"
         y="5"
         x="5"
         height="38"
         width="38"
         id="rect7503"
         style="fill:none;stroke:#000000;stroke-width:0.1;stroke-linecap:round;stroke-linejoin:miter;stroke-miterlimit:4;stroke-dasharray:none;stroke-dashoffset:0;stroke-opacity:1" />
      <rect
         ry="3"
         rx="3"
         transform="translate(0,1004.3622)"
         y="2"
         x="8"
         height="44"
         width="32"
         id="rect7505"
         style="fill:none;stroke:#000000;stroke-width:0.1;stroke-linecap:round;stroke-linejoin:miter;stroke-miterlimit:4;stroke-dasharray:none;stroke-dashoffset:0;stroke-opacity:1" />
      <rect
         ry="3"
         rx="3"
         transform="translate(0,1004.3622)"
         y="8"
         x="2"
         height="32"
         width="44"
         id="rect7507"
         style="fill:none;stroke:#000000;stroke-width:0.1;stroke-linecap:round;stroke-linejoin:miter;stroke-miterlimit:4;stroke-dasharray:none;stroke-dashoffset:0;stroke-opacity:1" />
      <rect
         transform="translate(0,1004.3622)"
         y="0"
         x="0"
         height="48"
         width="48"
         id="rect7509"
         style="fill:none;stroke:#000000;stroke-width:0.1;stroke-linecap:round;stroke-linejoin:miter;stroke-miterlimit:4;stroke-dasharray:none;stroke-dashoffset:0;stroke-opacity:1" />
    </g>
  </g>
</svg>
